<svg xmlns="http://www.w3.org/2000/svg" xmlns:xlink="http://www.w3.org/1999/xlink" width="872" height="683" fill="none" xmlns:v="https://vecta.io/nano"><path d="M242.14 351.258L.97 423.155 45.153 571.37l241.172-71.896-44.185-148.215z" fill="url(#A)"/><path d="M238.02 356.49L5.022 425.95l41.236 138.324 232.997-69.46L238.02 356.49z" fill="#fff"/><path opacity=".36" d="M24.86 455.365l29.64-8.836-6.54-21.936-29.64 8.836 6.54 21.936zm37.036 35.43l113.83-33.934-2.12-7.1-113.83 33.934 2.12 7.1zM97.322 497l83-24.743-1.415-4.744-83 24.744L97.322 497z" fill="#f55f44"/><path d="M617.96.004l-29.564 151.808 247.02 48.105L864.98 48.11 617.96.004z" fill="url(#B)"/><path d="M620.25 4.378l-27.59 141.678 238.647 46.475 27.59-141.678L620.25 4.378z" fill="#fff"/><path opacity=".36" d="M624.095 39.637l30.36 5.912 4.375-22.468-30.36-5.912-4.375 22.468zm16.388 48.577l116.6 22.705 1.418-7.283L641.9 80.93l-1.418 7.283zM669 110.157l85.013 16.556.946-4.86-85.013-16.556-.946 4.86z" fill="#f55f44"/><path d="M771.575 299.742L629.69 361.288l100.147 230.875 141.887-61.546-100.148-230.875z" fill="url(#C)"/><path d="M769.26 304.105l-132.418 57.44 96.753 223.05 132.418-57.44-96.753-223.05z" fill="#fff"/><path opacity=".36" d="M742.34 327.27l12.3 28.376 21-9.1-12.308-28.375-21 9.1zm-30.775 40.993l47.268 108.97 6.807-2.953-47.268-108.97-6.807 2.952zm-1.95 35.91l34.466 79.456 4.54-1.97-34.466-79.456-4.54 1.97z" fill="#47e6b1"/><path d="M305.333 1.085L68.152 85.215l51.703 145.762 237.18-84.13L305.333 1.085z" fill="url(#D)"/><path d="M301.49 6.54L72.35 87.817l48.253 136.036 229.142-81.28L301.49 6.54z" fill="#fff"/><path opacity=".36" d="M93.6 116.235l29.15-10.34-7.652-21.573-29.15 10.34 7.652 21.573zm38.798 33.505l111.946-39.708-2.48-6.994-111.946 39.7 2.48 6.993zm35.695 4.397l81.627-28.954-1.655-4.665-81.627 28.954 1.655 4.665z" fill="#6c5ce7"/><path d="M437.005 9L144 281.2V682h586V281.2L437.005 9z" fill="url(#E)"/><path d="M726.68 682.3H146.63V284.38L436.66 14.16L726.68 284.38V682.3Z" fill="#fff"/><path d="M638.58 69.6H234.73V544.7h403.85V69.6z" fill="url(#F)"/><path d="M633.48 73.55H239.83V544.7h393.65V73.55z" fill="#fff"/><g fill="#f5f5f5"><path d="M146.63 284.38L436.66 483.34L146.63 682.3V284.38Z"/><path d="M726.68 284.38L436.66 483.34L726.68 682.3V284.38Z"/></g><path d="M146.63 682.3l278.64-216.8a18.39 18.39 0 0 1 22.75 0l278.66 216.8H146.63z" fill="url(#G)"/><path d="M146.63 682.3l278.64-207.32c3.288-2.446 7.277-3.766 11.375-3.766s8.087 1.32 11.375 3.766L726.68 682.3H146.63z" fill="#fff"/><path d="M381.72 164.6h-82.16v13.86h82.16V164.6z" fill="#47e6b1"/><path d="M573.75 201.24h-274.2v13.86h274.2v-13.86zm0 23.76h-274.2v13.86h274.2V225zm0 23.75h-274.2v13.86h274.2v-13.86zm0 23.75h-274.2v13.86h274.2V272.5zm-149.47 23.76H299.56v13.86h124.72v-13.86z" fill="#f5f5f5"/><path d="M573.75 296.26H449.03v13.86h124.72v-13.86z" fill="#6c5ce7"/><defs><linearGradient id="A" x1="165.739" y1="535.421" x2="121.554" y2="387.207" xlink:href="#H"><stop stop-color="gray" stop-opacity=".25"/><stop offset=".54" stop-color="gray" stop-opacity=".12"/><stop offset="1" stop-color="gray" stop-opacity=".1"/></linearGradient><linearGradient id="B" x1="18779.8" y1="44053.8" x2="26219.8" y2="5849.74" xlink:href="#H"><stop stop-color="gray" stop-opacity=".25"/><stop offset=".54" stop-color="gray" stop-opacity=".12"/><stop offset="1" stop-color="gray" stop-opacity=".1"/></linearGradient><linearGradient id="C" x1="-89900.5" y1="80107.9" x2="-54193.4" y2="64619" xlink:href="#H"><stop stop-color="gray" stop-opacity=".25"/><stop offset=".54" stop-color="gray" stop-opacity=".12"/><stop offset="1" stop-color="gray" stop-opacity=".1"/></linearGradient><linearGradient id="D" x1="-2506" y1="38189" x2="-10502.4" y2="15645.5" xlink:href="#H"><stop stop-color="gray" stop-opacity=".25"/><stop offset=".54" stop-color="gray" stop-opacity=".12"/><stop offset="1" stop-color="gray" stop-opacity=".1"/></linearGradient><linearGradient id="E" x1="255441" y1="465193" x2="255441" y2="6207.32" xlink:href="#H"><stop stop-color="gray" stop-opacity=".25"/><stop offset=".54" stop-color="gray" stop-opacity=".12"/><stop offset="1" stop-color="gray" stop-opacity=".1"/></linearGradient><linearGradient id="F" x1="176176" y1="258872" x2="176176" y2="33133.2" xlink:href="#H"><stop stop-color="gray" stop-opacity=".25"/><stop offset=".54" stop-color="gray" stop-opacity=".12"/><stop offset="1" stop-color="gray" stop-opacity=".1"/></linearGradient><linearGradient id="G" x1="348351" y1="174108" x2="348351" y2="125386" xlink:href="#H"><stop stop-color="gray" stop-opacity=".25"/><stop offset=".54" stop-color="gray" stop-opacity=".12"/><stop offset="1" stop-color="gray" stop-opacity=".1"/></linearGradient><linearGradient id="H" gradientUnits="userSpaceOnUse"/></defs></svg>